<mxfile host="app.diagrams.net" modified="2023-11-30T15:21:56.392Z" agent="Mozilla/5.0 (Windows NT 10.0; Win64; x64) AppleWebKit/537.36 (KHTML, like Gecko) Chrome/119.0.0.0 Safari/537.36 OPR/105.0.0.0" version="22.1.5" etag="C4ABsu4dR3e0OT5F3ucd" type="github">
  <diagram name="Page-1" id="2-O2zv7ywS8BAJ4QOB2O">
    <mxGraphModel>
      <root>
        <mxCell id="0" />
        <mxCell id="1" parent="0" />
      </root>
    </mxGraphModel>
  </diagram>
</mxfile>
